<svg version="1.1" xmlns="http://www.w3.org/2000/svg" viewBox="0 0 1398.801177159905 775.8200364005372" width="1398.801177159905" height="775.8200364005372"><!-- svg-source:excalidraw --><metadata></metadata><defs><style class="style-fonts">
      </style></defs><rect x="0" y="0" width="1398.801177159905" height="775.8200364005372" fill="#ffffff"></rect><g stroke-linecap="round" transform="translate(226.49176872899204 170.4863755400015) rotate(0 32 235)"><path d="M16 0 C27.67 -1.26, 33.52 0.4, 48 0 C56.59 -3.42, 60.85 7.99, 64 16 C66.14 157.28, 66.74 297.88, 64 454 C64.92 466.12, 61.63 467.46, 48 470 C40.49 470.12, 27.4 473.34, 16 470 C3.52 469.35, 2.54 463.12, 0 454 C0.35 310.53, -1.04 165.87, 0 16 C-2.76 3.99, 8.38 -3.46, 16 0" stroke="none" stroke-width="0" fill="#a5d8ff"></path><path d="M16 0 C23.82 -0.69, 36.34 -0.21, 48 0 M16 0 C25 0.55, 35.17 0.26, 48 0 M48 0 C59.62 -1.77, 65.09 6.78, 64 16 M48 0 C60.85 1.16, 65.67 6.26, 64 16 M64 16 C63.45 182.21, 62.72 349.5, 64 454 M64 16 C64.5 132.9, 64.66 250.12, 64 454 M64 454 C65.04 466.44, 60.52 469.3, 48 470 M64 454 C62.12 465.26, 59.23 469.51, 48 470 M48 470 C39.65 471.51, 30.33 469.71, 16 470 M48 470 C40.01 469.58, 29.84 469.86, 16 470 M16 470 C6.39 470.2, -0.66 466.18, 0 454 M16 470 C6.14 469.44, -0.74 466.03, 0 454 M0 454 C-2.54 281.87, -1.05 109.78, 0 16 M0 454 C0.64 338.63, 0.86 222.11, 0 16 M0 16 C1.76 5.57, 5.66 0.09, 16 0 M0 16 C0.64 7.06, 4.57 0.96, 16 0" stroke="#a5d8ff" stroke-width="4" fill="none"></path></g><g stroke-linecap="round" transform="translate(368.98896016815047 141.67801573684008) rotate(325.278121144895 28.511389345964005 260.25865918305)"><path d="M14.26 0 C21.43 0.24, 25.29 -3.19, 42.77 0 C49.12 2.65, 57.74 7.53, 57.02 14.26 C54.89 141.67, 55.54 266.99, 57.02 506.26 C59.98 513.23, 52.43 521.88, 42.77 520.52 C30.48 523.26, 18.6 519.81, 14.26 520.52 C7.29 518.97, 1 515.43, 0 506.26 C-1.11 357.41, -1.09 209.68, 0 14.26 C3.04 1.3, 4.87 2.05, 14.26 0" stroke="none" stroke-width="0" fill="#a5d8ff"></path><path d="M14.26 0 C26.85 0.09, 35.39 1.26, 42.77 0 M14.26 0 C25.2 0.25, 35.43 -1.1, 42.77 0 M42.77 0 C53.36 1.45, 58.92 5.76, 57.02 14.26 M42.77 0 C53.94 0.93, 58.87 3.93, 57.02 14.26 M57.02 14.26 C57.09 159.29, 57.22 303.83, 57.02 506.26 M57.02 14.26 C55.31 176.88, 55.7 339.48, 57.02 506.26 M57.02 506.26 C58.87 515.07, 50.63 521.04, 42.77 520.52 M57.02 506.26 C57.59 515.28, 51.38 521.5, 42.77 520.52 M42.77 520.52 C32.47 520.34, 23.43 522.49, 14.26 520.52 M42.77 520.52 C32.05 520.08, 23.76 520.46, 14.26 520.52 M14.26 520.52 C4.09 522.03, 0.7 515.28, 0 506.26 M14.26 520.52 C4.01 521.88, 2.15 517.41, 0 506.26 M0 506.26 C2.38 380.61, 1.65 254.31, 0 14.26 M0 506.26 C-0.46 310.81, -0.45 116.18, 0 14.26 M0 14.26 C0.33 4.84, 5.31 1.5, 14.26 0 M0 14.26 C-0.76 5.71, 3.93 -2.23, 14.26 0" stroke="#a5d8ff" stroke-width="4" fill="none"></path></g><g stroke-linecap="round" transform="translate(508.49176872899204 166.4863755400015) rotate(0 32 235)"><path d="M16 0 C22.05 -3.42, 29.09 2.65, 48 0 C59.38 2.78, 62.42 3.5, 64 16 C63.75 176.15, 64.78 333.55, 64 454 C64.16 466.03, 61.98 472.23, 48 470 C36.96 469.8, 32.07 468.9, 16 470 C6.33 469.66, 0.03 464.61, 0 454 C1.71 319.87, 4.64 185.36, 0 16 C0.12 7.39, 8.55 0.46, 16 0" stroke="none" stroke-width="0" fill="#a5d8ff"></path><path d="M16 0 C24.68 1.19, 35.01 -0.58, 48 0 M16 0 C28.47 -1.03, 40.54 0.58, 48 0 M48 0 C60.56 1.01, 65.45 6.14, 64 16 M48 0 C60.51 -0.82, 63.86 5.87, 64 16 M64 16 C62.59 135.51, 63.22 253.45, 64 454 M64 16 C63.29 143.95, 63.49 270.82, 64 454 M64 454 C62.36 465.18, 59.16 469.58, 48 470 M64 454 C63.11 465.65, 59.31 470.02, 48 470 M48 470 C35.5 471.71, 25.1 471.18, 16 470 M48 470 C40.72 470.01, 32.06 470.67, 16 470 M16 470 C6.04 469.51, -0.64 465.85, 0 454 M16 470 C7.48 471.64, -1.01 462.46, 0 454 M0 454 C-1.51 316.9, -0.18 180.59, 0 16 M0 454 C-1.42 293.54, -1.78 132.98, 0 16 M0 16 C0.55 6.83, 4.67 0.84, 16 0 M0 16 C-0.83 3.1, 3.72 2.05, 16 0" stroke="#a5d8ff" stroke-width="4" fill="none"></path></g><g stroke-linecap="round" transform="translate(572.4917687289916 169.4863755400015) rotate(0 299.5 27)"><path d="M13.5 0 C183.82 4.98, 356.95 5.03, 585.5 0 C592.92 -1.84, 601.3 3.85, 599 13.5 C602.08 21.5, 599.29 35.94, 599 40.5 C602.32 51.73, 594.09 52.89, 585.5 54 C370.35 52.64, 153.57 53.12, 13.5 54 C4.53 53.95, 0.17 46.68, 0 40.5 C3.42 30.48, 0.49 29.42, 0 13.5 C3.22 4.96, 3.15 0.61, 13.5 0" stroke="none" stroke-width="0" fill="#a5d8ff"></path><path d="M13.5 0 C186.45 -1.59, 359 -0.89, 585.5 0 M13.5 0 C211.78 2.31, 410 2.22, 585.5 0 M585.5 0 C595.95 0.81, 600.6 3.79, 599 13.5 M585.5 0 C594.36 0.54, 598.35 3.37, 599 13.5 M599 13.5 C599.51 21.45, 598.73 31.53, 599 40.5 M599 13.5 C600.07 22.49, 598.32 32.43, 599 40.5 M599 40.5 C599.49 49.08, 593.73 54.86, 585.5 54 M599 40.5 C599.65 49.52, 596.14 52.92, 585.5 54 M585.5 54 C425.15 56.52, 263.66 55.27, 13.5 54 M585.5 54 C429.59 54.53, 274.09 54.13, 13.5 54 M13.5 54 C3.86 55.19, 1.87 50.93, 0 40.5 M13.5 54 C3.49 51.8, 0.29 50.7, 0 40.5 M0 40.5 C2.03 32.39, 1.43 24.39, 0 13.5 M0 40.5 C-0.07 35, 0.04 30.15, 0 13.5 M0 13.5 C-0.66 5.34, 3.78 -1.94, 13.5 0 M0 13.5 C-1.61 6.55, 3.44 0.4, 13.5 0" stroke="#a5d8ff" stroke-width="4" fill="none"></path></g><g stroke-linecap="round" transform="translate(572.491768728992 580.4863755400015) rotate(0 136.5 27)"><path d="M13.5 0 C64.49 -0.4, 113 -4.2, 259.5 0 C270.8 -0.65, 276.25 5.42, 273 13.5 C273.56 24.05, 276.72 34.11, 273 40.5 C272.59 48.39, 271.3 52.19, 259.5 54 C190.96 52.15, 120.8 52.39, 13.5 54 C4.67 51.18, -2.04 46.74, 0 40.5 C-0.29 35.46, 2.81 26.78, 0 13.5 C-1.35 5.11, 2.64 0.82, 13.5 0" stroke="none" stroke-width="0" fill="#a5d8ff"></path><path d="M13.5 0 C103.2 1.56, 191.2 1.36, 259.5 0 M13.5 0 C66.33 -1.05, 118.19 -1.13, 259.5 0 M259.5 0 C270.1 -0.71, 272.88 4.97, 273 13.5 M259.5 0 C267.85 -1.13, 274.15 3.74, 273 13.5 M273 13.5 C272.9 21.8, 274 32.9, 273 40.5 M273 13.5 C272.43 24.25, 273.5 34.27, 273 40.5 M273 40.5 C272.23 50.36, 269.06 54.02, 259.5 54 M273 40.5 C274.64 48.42, 268.06 53.29, 259.5 54 M259.5 54 C163.03 53.71, 67.95 56.13, 13.5 54 M259.5 54 C183.49 55.33, 106.63 56.02, 13.5 54 M13.5 54 C6.37 55.43, -0.88 47.59, 0 40.5 M13.5 54 C4.79 55.2, 0.68 48.68, 0 40.5 M0 40.5 C1.07 34.63, -2.15 27.13, 0 13.5 M0 40.5 C0.23 32.83, -0.37 24.07, 0 13.5 M0 13.5 C-0.72 2.56, 3.1 1.79, 13.5 0 M0 13.5 C-1.06 4.9, 4.5 -1.32, 13.5 0" stroke="#a5d8ff" stroke-width="4" fill="none"></path></g><g stroke-linecap="round" transform="translate(573.491768728992 365.4863755400015) rotate(0 111 30)"><path d="M15 0 C85.17 -4.5, 160.79 -3.32, 207 0 C220.25 0.92, 223.45 7.96, 222 15 C225.34 24.12, 221.61 27.66, 222 45 C224.8 53.19, 216.35 62.54, 207 60 C157.69 59.62, 108.48 56.86, 15 60 C2.96 57.24, -1.35 58.04, 0 45 C3.2 39.34, -1.37 33.37, 0 15 C-1.86 5.82, 7.74 1.6, 15 0" stroke="none" stroke-width="0" fill="#a5d8ff"></path><path d="M15 0 C68.04 -0.2, 117.45 -0.06, 207 0 M15 0 C87.21 -0.56, 158.78 -1.32, 207 0 M207 0 C216.88 0.47, 221.44 4.02, 222 15 M207 0 C218.15 -0.76, 222.92 5.69, 222 15 M222 15 C222.89 22.77, 223.74 30.33, 222 45 M222 15 C222 22.74, 221.37 31.34, 222 45 M222 45 C222.56 55.02, 218.42 59.06, 207 60 M222 45 C221.56 54.29, 219.03 60.98, 207 60 M207 60 C136.9 59.24, 68.11 57.52, 15 60 M207 60 C134.57 60.12, 63.72 60.24, 15 60 M15 60 C4.12 58.09, 0.25 56.05, 0 45 M15 60 C5.68 59.18, -0.46 57.22, 0 45 M0 45 C-2.09 36.57, 0.04 24.94, 0 15 M0 45 C-0.41 36.28, -0.44 25.76, 0 15 M0 15 C-1.4 6.79, 4.08 0.35, 15 0 M0 15 C0 3.68, 2.81 -2.02, 15 0" stroke="#a5d8ff" stroke-width="4" fill="none"></path></g><g stroke-linecap="round" transform="translate(971.491768728992 222.4863755400015) rotate(0 32 208.5)"><path d="M16 0 C30.37 -0.35, 43.39 1.21, 48 0 C60.12 2.96, 61.46 5.5, 64 16 C67.53 145.4, 69.44 275.05, 64 401 C63.35 414.2, 57.12 418, 48 417 C38.87 414.18, 27.36 414.23, 16 417 C3.99 420.04, -3.46 411.78, 0 401 C-4.46 263.91, -4.76 126.58, 0 16 C2.74 6.93, 4.44 0.37, 16 0" stroke="none" stroke-width="0" fill="#a5d8ff"></path><path d="M16 0 C25.74 0.94, 40.47 1.74, 48 0 M16 0 C28.01 -0.49, 38.36 0.1, 48 0 M48 0 C58.11 -0.98, 65 4.67, 64 16 M48 0 C59.59 0.69, 62.27 5.13, 64 16 M64 16 C66.09 115.62, 64.63 212.07, 64 401 M64 16 C64.33 141.73, 64.73 266.95, 64 401 M64 401 C65.42 410.72, 58.29 416.38, 48 417 M64 401 C66.03 412.65, 60.1 415.71, 48 417 M48 417 C41.63 416.51, 36.36 417.87, 16 417 M48 417 C40.12 417.9, 29.92 416.23, 16 417 M16 417 C5.58 418.05, 0.59 410.95, 0 401 M16 417 C4.88 419.22, 0.91 413.2, 0 401 M0 401 C2.29 253.09, 2.2 105.12, 0 16 M0 401 C0.54 256.08, 0.34 112.84, 0 16 M0 16 C-0.92 5.68, 5.33 -1.15, 16 0 M0 16 C-2.19 3.32, 7.03 0.46, 16 0" stroke="#a5d8ff" stroke-width="4" fill="none"></path></g><g stroke-linecap="round"><g transform="translate(1139.3462693489087 145.99550846593266) rotate(45.97695393785716 159.84113629489218 -68.58335208586516)"><path d="M0.65 0.87 C29.34 -21.72, 119.34 -130.4, 172.66 -136.56 C225.98 -142.72, 295.89 -52.69, 320.55 -36.1 M-0.46 0.28 C28.11 -22.57, 118.86 -131.96, 172.31 -138.37 C225.76 -144.78, 295.4 -55.22, 320.24 -38.18" stroke="#a5d8ff" stroke-width="4" fill="none"></path></g></g><mask></mask><g stroke-linecap="round"><g transform="translate(-55.64542398298238 771.6259078735675) rotate(223.80499106009114 159.84113629489218 -68.58335208586516)"><path d="M1.14 0.6 C29.76 -22.32, 119.14 -130.41, 172.39 -136.68 C225.64 -142.95, 296.11 -53.74, 320.64 -37.01 M0.27 -0.13 C28.76 -23.49, 118.55 -132.58, 171.9 -138.55 C225.25 -144.51, 295.73 -53.17, 320.38 -35.92" stroke="#a5d8ff" stroke-width="4" fill="none"></path></g></g><mask></mask></svg>