<svg xmlns="http://www.w3.org/2000/svg" viewBox="0 0 320 200">
  <defs>
<!--Cosmic Background: Radial gradient with dark blue and gray hues-->
    <radialGradient id="bgGrad" cx="50%" cy="50%" r="70%">
      <stop offset="0%" stop-color="#505050"/>
      <stop offset="100%" stop-color="#303030"/>
    </radialGradient>
<!--Letter Gradient: White to light blue to gray for a futuristic look-->
    <linearGradient id="letterGrad" x1="0%" y1="0%" x2="100%" y2="0%">
      <stop offset="0%" stop-color="#cfcfcf"/>
      <stop offset="50%" stop-color="#A0B0C0"/>
      <stop offset="100%" stop-color="#7D7D7D"/>
    </linearGradient>
    <linearGradient id="blueGrad" x1="0%" y1="0%" x2="100%" y2="0%">
      <stop offset="0%" stop-color="#77A0F2"/>
<!--Deep Blue-->
      <stop offset="50%" stop-color="#3D79F2"/>
<!--Medium Blue-->
      <stop offset="100%" stop-color="#0540F2"/>
<!--Light Blue-->
    </linearGradient>
<!--Drop shadow filter for added depth-->
    <filter id="shadow" x="-20%" y="-20%" width="140%" height="140%">
      <feDropShadow dx="3" dy="3" stdDeviation="3" flood-color="#000" flood-opacity="0.3"/>
    </filter>
  </defs>
<!--Background with cosmic gradient-->
 <!--  <rect width="350" height="200" fill="url(#bgGrad)"/> -->
<!--Letters rendered in geometric shapes-->
<!--Letter N-->
  <rect x="47.5" y="20" width="25" height="160" rx="5" fill="url(#letterGrad)" filter="url(#shadow)" transform="rotate(338.5 55 100)"/>
<!--<polygon points="20,25 40,20 100,175 80,180" fill="url(#letterGrad)" filter="url(#shadow)"/>-->
  <rect x="20" y="20" width="25" height="160" rx="5" fill="url(#letterGrad)" filter="url(#shadow)"/>
  <rect x="75" y="20" width="25" height="160" rx="5" fill="url(#letterGrad)" filter="url(#shadow)"/>
<!--Letter E-->
<!--<rect x="90" y="20" width="20" height="160" fill="url(#letterGrad)" filter="url(#shadow)"/>-->
<!--<rect x="120" y="20" width="80" height="25" rx="5" fill="url(#letterGrad)" filter="url(#shadow)"/>-->
  <rect x="120" y="87.5" width="80" height="25" rx="5" fill="url(#blueGrad)" filter="url(#shadow)"/>
  <rect x="120" y="155" width="80" height="25" rx="5" fill="url(#letterGrad)" filter="url(#shadow)"/>
<!--Letter T-->
  <rect x="247.5" y="20" width="25" height="160" rx="5" fill="url(#letterGrad)" filter="url(#shadow)"/>
  <rect x="120" y="20" width="180" height="25" rx="5" fill="url(#letterGrad)" filter="url(#shadow)"/>
</svg>
